<mxfile host="65bd71144e">
    <diagram id="4vjiCSIlj2Uk8DZdLOac" name="Page-1">
        <mxGraphModel dx="991" dy="811" grid="1" gridSize="10" guides="1" tooltips="1" connect="1" arrows="1" fold="1" page="1" pageScale="1" pageWidth="850" pageHeight="1100" math="0" shadow="0">
            <root>
                <mxCell id="0"/>
                <mxCell id="1" parent="0"/>
                <mxCell id="2" value="Štart" style="ellipse;whiteSpace=wrap;html=1;" parent="1" vertex="1">
                    <mxGeometry x="370" y="10" width="100" height="100" as="geometry"/>
                </mxCell>
                <mxCell id="3" value="" style="endArrow=classic;html=1;exitX=0.5;exitY=1;exitDx=0;exitDy=0;entryX=0.5;entryY=0;entryDx=0;entryDy=0;" parent="1" source="2" target="7" edge="1">
                    <mxGeometry width="50" height="50" relative="1" as="geometry">
                        <mxPoint x="280" y="80" as="sourcePoint"/>
                        <mxPoint x="450" y="110" as="targetPoint"/>
                    </mxGeometry>
                </mxCell>
                <mxCell id="4" value="Pripojenie na DB?" style="rhombus;whiteSpace=wrap;html=1;" parent="1" vertex="1">
                    <mxGeometry x="40" y="400" width="200" height="100" as="geometry"/>
                </mxCell>
                <mxCell id="5" value="nie" style="endArrow=classic;html=1;exitX=0;exitY=0.5;exitDx=0;exitDy=0;entryX=0;entryY=0.5;entryDx=0;entryDy=0;" parent="1" source="4" target="18" edge="1">
                    <mxGeometry width="50" height="50" relative="1" as="geometry">
                        <mxPoint x="400" y="230" as="sourcePoint"/>
                        <mxPoint x="20" y="510" as="targetPoint"/>
                        <Array as="points">
                            <mxPoint x="20" y="450"/>
                            <mxPoint x="20" y="940"/>
                        </Array>
                    </mxGeometry>
                </mxCell>
                <mxCell id="7" value="Hlavná stránka" style="rounded=0;whiteSpace=wrap;html=1;" parent="1" vertex="1">
                    <mxGeometry x="345" y="160" width="150" height="80" as="geometry"/>
                </mxCell>
                <mxCell id="8" value="" style="endArrow=classic;html=1;exitX=0.5;exitY=1;exitDx=0;exitDy=0;entryX=0.5;entryY=0;entryDx=0;entryDy=0;" parent="1" source="7" target="26" edge="1">
                    <mxGeometry width="50" height="50" relative="1" as="geometry">
                        <mxPoint x="430" y="120" as="sourcePoint"/>
                        <mxPoint x="420" y="300" as="targetPoint"/>
                    </mxGeometry>
                </mxCell>
                <mxCell id="10" value="Meranie gamepad" style="rounded=0;whiteSpace=wrap;html=1;" parent="1" vertex="1">
                    <mxGeometry x="360" y="520" width="150" height="80" as="geometry"/>
                </mxCell>
                <mxCell id="12" value="joystick?" style="rhombus;whiteSpace=wrap;html=1;" parent="1" vertex="1">
                    <mxGeometry x="490" y="380" width="200" height="100" as="geometry"/>
                </mxCell>
                <mxCell id="13" value="analogový" style="endArrow=classic;html=1;exitX=1;exitY=0.5;exitDx=0;exitDy=0;entryX=0.5;entryY=0;entryDx=0;entryDy=0;" parent="1" source="12" target="23" edge="1">
                    <mxGeometry width="50" height="50" relative="1" as="geometry">
                        <mxPoint x="529.9999999999998" y="350" as="sourcePoint"/>
                        <mxPoint x="790" y="580" as="targetPoint"/>
                        <Array as="points">
                            <mxPoint x="735" y="430"/>
                        </Array>
                    </mxGeometry>
                </mxCell>
                <mxCell id="14" value="gamepad" style="endArrow=classic;html=1;exitX=0;exitY=0.5;exitDx=0;exitDy=0;entryX=0.5;entryY=0;entryDx=0;entryDy=0;" parent="1" source="12" target="10" edge="1">
                    <mxGeometry width="50" height="50" relative="1" as="geometry">
                        <mxPoint x="329.9999999999998" y="350" as="sourcePoint"/>
                        <mxPoint x="80" y="570" as="targetPoint"/>
                        <Array as="points">
                            <mxPoint x="435" y="430"/>
                        </Array>
                    </mxGeometry>
                </mxCell>
                <mxCell id="18" value="Koniec" style="ellipse;whiteSpace=wrap;html=1;" parent="1" vertex="1">
                    <mxGeometry x="375" y="890" width="100" height="100" as="geometry"/>
                </mxCell>
                <mxCell id="19" value="Zopakovať meranie?" style="rhombus;whiteSpace=wrap;html=1;" parent="1" vertex="1">
                    <mxGeometry x="510" y="900" width="200" height="100" as="geometry"/>
                </mxCell>
                <mxCell id="20" value="nie" style="endArrow=classic;html=1;entryX=0.5;entryY=1;entryDx=0;entryDy=0;" parent="1" target="18" edge="1">
                    <mxGeometry width="50" height="50" relative="1" as="geometry">
                        <mxPoint x="610" y="1000" as="sourcePoint"/>
                        <mxPoint x="470" y="1050" as="targetPoint"/>
                        <Array as="points">
                            <mxPoint x="610" y="1040"/>
                            <mxPoint x="425" y="1040"/>
                        </Array>
                    </mxGeometry>
                </mxCell>
                <mxCell id="21" value="áno" style="endArrow=classic;html=1;exitX=1;exitY=0.5;exitDx=0;exitDy=0;entryX=1;entryY=0.5;entryDx=0;entryDy=0;" parent="1" source="19" target="7" edge="1">
                    <mxGeometry width="50" height="50" relative="1" as="geometry">
                        <mxPoint x="380" y="725" as="sourcePoint"/>
                        <mxPoint x="810" y="370" as="targetPoint"/>
                        <Array as="points">
                            <mxPoint x="840" y="950"/>
                            <mxPoint x="840" y="200"/>
                        </Array>
                    </mxGeometry>
                </mxCell>
                <mxCell id="22" value="nie" style="endArrow=classic;html=1;exitX=0;exitY=0.5;exitDx=0;exitDy=0;entryX=0.5;entryY=0;entryDx=0;entryDy=0;" parent="1" source="26" target="4" edge="1">
                    <mxGeometry width="50" height="50" relative="1" as="geometry">
                        <mxPoint x="425" y="739.9999999999998" as="sourcePoint"/>
                        <mxPoint x="385" y="300" as="targetPoint"/>
                        <Array as="points">
                            <mxPoint x="140" y="350"/>
                        </Array>
                    </mxGeometry>
                </mxCell>
                <mxCell id="23" value="Meranie analog" style="rounded=0;whiteSpace=wrap;html=1;" parent="1" vertex="1">
                    <mxGeometry x="660" y="520" width="150" height="80" as="geometry"/>
                </mxCell>
                <mxCell id="26" value="Vykonať meranie?:" style="rhombus;whiteSpace=wrap;html=1;" parent="1" vertex="1">
                    <mxGeometry x="320" y="300" width="200" height="100" as="geometry"/>
                </mxCell>
                <mxCell id="33" value="áno" style="endArrow=classic;html=1;exitX=1;exitY=0.5;exitDx=0;exitDy=0;entryX=0.5;entryY=0;entryDx=0;entryDy=0;" parent="1" source="26" target="12" edge="1">
                    <mxGeometry width="50" height="50" relative="1" as="geometry">
                        <mxPoint x="330" y="360" as="sourcePoint"/>
                        <mxPoint x="250" y="400" as="targetPoint"/>
                        <Array as="points">
                            <mxPoint x="590" y="350"/>
                        </Array>
                    </mxGeometry>
                </mxCell>
                <mxCell id="34" value="" style="endArrow=classic;html=1;exitX=0.5;exitY=1;exitDx=0;exitDy=0;entryX=0.5;entryY=0;entryDx=0;entryDy=0;" parent="1" source="10" target="36" edge="1">
                    <mxGeometry width="50" height="50" relative="1" as="geometry">
                        <mxPoint x="540" y="700" as="sourcePoint"/>
                        <mxPoint x="435" y="660" as="targetPoint"/>
                        <Array as="points">
                            <mxPoint x="435" y="640"/>
                            <mxPoint x="590" y="640"/>
                        </Array>
                    </mxGeometry>
                </mxCell>
                <mxCell id="35" value="" style="endArrow=classic;html=1;exitX=0.5;exitY=1;exitDx=0;exitDy=0;entryX=0.5;entryY=0;entryDx=0;entryDy=0;" parent="1" source="23" target="36" edge="1">
                    <mxGeometry width="50" height="50" relative="1" as="geometry">
                        <mxPoint x="445" y="610" as="sourcePoint"/>
                        <mxPoint x="735" y="650" as="targetPoint"/>
                        <Array as="points">
                            <mxPoint x="735" y="640"/>
                            <mxPoint x="590" y="640"/>
                        </Array>
                    </mxGeometry>
                </mxCell>
                <mxCell id="36" value="Pripojenie na DB?" style="rhombus;whiteSpace=wrap;html=1;" parent="1" vertex="1">
                    <mxGeometry x="490" y="670" width="200" height="100" as="geometry"/>
                </mxCell>
                <mxCell id="38" value="áno" style="endArrow=classic;html=1;exitX=1;exitY=0.5;exitDx=0;exitDy=0;entryX=0.5;entryY=0;entryDx=0;entryDy=0;entryPerimeter=0;" parent="1" source="4" target="39" edge="1">
                    <mxGeometry width="50" height="50" relative="1" as="geometry">
                        <mxPoint x="280" y="570" as="sourcePoint"/>
                        <mxPoint x="170" y="630" as="targetPoint"/>
                        <Array as="points">
                            <mxPoint x="270" y="450"/>
                        </Array>
                    </mxGeometry>
                </mxCell>
                <mxCell id="39" value="Stiahnuť merania z DB" style="shape=cylinder3;whiteSpace=wrap;html=1;boundedLbl=1;backgroundOutline=1;size=15;" parent="1" vertex="1">
                    <mxGeometry x="220" y="520" width="100" height="100" as="geometry"/>
                </mxCell>
                <mxCell id="40" value="Prehrať meranie" style="rounded=0;whiteSpace=wrap;html=1;" parent="1" vertex="1">
                    <mxGeometry x="195" y="690" width="150" height="80" as="geometry"/>
                </mxCell>
                <mxCell id="41" value="" style="endArrow=classic;html=1;exitX=0.5;exitY=1;exitDx=0;exitDy=0;exitPerimeter=0;entryX=0.5;entryY=0;entryDx=0;entryDy=0;" parent="1" source="39" target="40" edge="1">
                    <mxGeometry width="50" height="50" relative="1" as="geometry">
                        <mxPoint x="390" y="690" as="sourcePoint"/>
                        <mxPoint x="440" y="640" as="targetPoint"/>
                    </mxGeometry>
                </mxCell>
                <mxCell id="42" value="" style="endArrow=classic;html=1;exitX=0.5;exitY=1;exitDx=0;exitDy=0;entryX=0;entryY=0;entryDx=0;entryDy=0;" parent="1" source="40" target="18" edge="1">
                    <mxGeometry width="50" height="50" relative="1" as="geometry">
                        <mxPoint x="280" y="630" as="sourcePoint"/>
                        <mxPoint x="285" y="700" as="targetPoint"/>
                    </mxGeometry>
                </mxCell>
                <mxCell id="43" value="áno" style="endArrow=classic;html=1;exitX=1;exitY=0.5;exitDx=0;exitDy=0;entryX=0.5;entryY=0;entryDx=0;entryDy=0;" parent="1" source="36" target="45" edge="1">
                    <mxGeometry width="50" height="50" relative="1" as="geometry">
                        <mxPoint x="700" y="720" as="sourcePoint"/>
                        <mxPoint x="770" y="750" as="targetPoint"/>
                        <Array as="points">
                            <mxPoint x="735" y="720"/>
                        </Array>
                    </mxGeometry>
                </mxCell>
                <mxCell id="44" value="nie" style="endArrow=classic;html=1;exitX=0;exitY=0.5;exitDx=0;exitDy=0;entryX=0.5;entryY=0;entryDx=0;entryDy=0;" parent="1" source="36" target="19" edge="1">
                    <mxGeometry width="50" height="50" relative="1" as="geometry">
                        <mxPoint x="550" y="770" as="sourcePoint"/>
                        <mxPoint x="410" y="820" as="targetPoint"/>
                        <Array as="points">
                            <mxPoint x="440" y="720"/>
                            <mxPoint x="440" y="860"/>
                            <mxPoint x="610" y="860"/>
                        </Array>
                    </mxGeometry>
                </mxCell>
                <mxCell id="45" value="Uložiť meranie" style="rounded=0;whiteSpace=wrap;html=1;" parent="1" vertex="1">
                    <mxGeometry x="660" y="760" width="150" height="80" as="geometry"/>
                </mxCell>
                <mxCell id="46" value="" style="endArrow=classic;html=1;exitX=0.5;exitY=1;exitDx=0;exitDy=0;entryX=0.5;entryY=0;entryDx=0;entryDy=0;" parent="1" source="45" target="19" edge="1">
                    <mxGeometry width="50" height="50" relative="1" as="geometry">
                        <mxPoint x="560" y="830" as="sourcePoint"/>
                        <mxPoint x="610" y="780" as="targetPoint"/>
                        <Array as="points">
                            <mxPoint x="735" y="860"/>
                            <mxPoint x="610" y="860"/>
                        </Array>
                    </mxGeometry>
                </mxCell>
            </root>
        </mxGraphModel>
    </diagram>
</mxfile>